<svg width="235" height="40" viewBox="0 0 235 40" fill="none" xmlns="http://www.w3.org/2000/svg">
<path d="M41.9623 8.33789H0.00439453V11.6067H41.9623V8.33789Z" fill="url(#paint0_linear_739_110)"/>
<path d="M4.73962 15.5705C6.85761 15.5705 9.64258 15.707 12.529 16.3702C16.7415 17.3375 19.6123 17.2985 21.4026 17.2985C23.193 17.2985 25.6152 17.2244 29.4845 16.5301C32.0277 16.0737 36.248 15.5666 38.4245 15.5666C39.4659 15.5666 40.6673 15.6017 41.9623 15.7149V14.3535L0.00439453 14.3691V15.9333C2.23939 15.5315 3.86201 15.5666 4.73962 15.5666V15.5705Z" fill="url(#paint1_linear_739_110)"/>
<path d="M41.4824 26.6577C40.4839 27.9839 38.7091 28.924 36.2245 28.7758C32.8076 28.573 30.3191 26.7981 29.4025 26.295C25.7126 24.2705 23.5712 23.5918 20.5522 23.5918C20.5522 23.5918 20.5483 23.5918 20.5444 23.5918C16.4333 23.5918 13.5586 25.0819 11.9516 26.0531C10.4226 26.9776 7.48936 29.2127 4.69269 29.2127C3.92819 29.2127 2.22366 28.8928 0.913086 27.6407C1.59958 29.0098 2.64882 30.2463 3.9477 31.3853C6.2217 31.4009 9.13928 29.2478 10.5669 28.4208C11.8813 27.6602 13.9642 27.0595 16.3942 27.0595C20.4274 27.0595 22.1865 28.5769 23.2202 29.3531C27.1129 32.2942 30.3464 32.2279 32.047 32.2279C33.7477 32.2279 35.2533 31.9158 38.5648 30.8978C39.7779 29.7432 40.8505 28.4052 41.4902 26.6577H41.4824Z" fill="url(#paint2_linear_739_110)"/>
<path d="M20.7235 21.2909C21.7376 21.0061 23.1184 20.62 24.9984 20.62C32.2378 20.62 36.6844 26.2681 41.9267 24.5869C41.9462 24.3451 41.9618 24.0994 41.9618 23.8497V19.9022C37.9482 18.8413 35.2412 18.459 32.035 18.459C29.2305 18.459 26.114 18.9115 23.7776 19.5785C21.4451 20.2455 18.5236 20.9164 16.507 20.9788C13.8312 21.0607 11.2608 20.577 7.57091 19.6721C4.42319 18.8998 2.40272 18.5643 0 18.4824V23.8536C0 23.8965 0.00390433 23.9394 0.00390433 23.9823C1.17796 24.6103 2.67185 24.7937 5.13698 24.7781C11.2452 24.7391 14.4397 23.054 20.7196 21.2948L20.7235 21.2909Z" fill="url(#paint3_linear_739_110)"/>
<path d="M20.6494 33.7322C17.0024 31.6337 14.8181 30.8535 11.7991 30.8535C9.43537 30.8535 7.411 32.0081 5.65967 32.7336C5.86249 32.878 6.07702 33.0223 6.28765 33.1627C8.53825 34.6606 11.526 36.2247 15.4227 37.8552C17.6382 38.768 19.6157 39.4779 20.9419 39.985C20.9575 39.9889 20.9692 39.9928 20.9809 40.0006C23.4655 39.08 29.5932 36.8957 34.0788 34.1847C29.0082 36.1974 24.1988 35.7762 20.6494 33.7322Z" fill="url(#paint4_linear_739_110)"/>
<path d="M41.9623 0H0.00439453V4.87194H41.9623V0Z" fill="url(#paint5_linear_739_110)"/>
<path d="M95.687 9.80078L82.589 32.5261H70.6612L57.5945 9.80078H67.143L76.6095 25.3333L86.1424 9.80078H95.6909H95.687Z" fill="#123D62"/>
<path d="M100.122 25.3282C100.223 27.0601 101.85 27.6491 103.289 27.6491H118.407V32.5211H103.898C96.077 32.5211 92.5042 28.9129 92.5042 23.4988C92.5042 18.5216 96.0809 14.4766 103.898 14.4766H111.184C114.928 14.4766 119.238 15.5727 119.238 20.0506C119.238 24.5286 114.495 25.3321 111.184 25.3321H100.126L100.122 25.3282ZM103.289 19.3446C101.854 19.3446 100.098 20.3744 100.122 21.6655H110.462C111.133 21.6655 111.624 21.1116 111.624 20.5031C111.624 19.9687 111.231 19.3407 110.462 19.3407H103.289V19.3446Z" fill="#123D62"/>
<path d="M216.092 21.6694C215.991 19.9375 214.364 19.3485 212.925 19.3485H199.133V14.4766H213.643C221.463 14.4766 223.706 15.4127 223.706 20.8269C223.706 25.8041 223.71 32.5211 223.71 32.5211H206.36C202.616 32.5211 198.306 31.425 198.306 26.947C198.306 22.3013 203.049 21.6655 206.36 21.6655H216.092V21.6694ZM216.096 27.6491V25.3282H207.125C206.356 25.3282 205.908 25.9055 205.908 26.4906C205.908 27.0757 206.356 27.653 207.125 27.653H216.096V27.6491Z" fill="#123D62"/>
<path d="M122.674 32.5211V14.4766H138.179C145.999 14.4766 149.572 16.462 149.572 23.4988V32.5211H141.955V22.0205C141.955 20.8191 141.221 19.3485 138.951 19.3485H130.284V32.525H122.67L122.674 32.5211Z" fill="#123D62"/>
<path d="M152.989 23.5004V14.4782L157.396 10.1328H160.595V14.4782H174.087V19.3501H160.595V24.9788C160.595 26.1802 161.363 27.6507 163.637 27.6507H174.091V32.5227H161.968C154.147 32.5227 152.989 28.9145 152.989 23.5004Z" fill="#123D62"/>
<path d="M185.122 32.5211H177.551V23.4988C177.551 18.0847 179.649 14.4766 187.466 14.4766H196.262V19.3485H188.16C185.886 19.3485 185.118 20.8191 185.118 22.0205V32.5211H185.122Z" fill="#123D62"/>
<path d="M234.779 7.47264V32.5227H227.169V11.7868L231.518 7.46094L234.783 7.47264H234.779Z" fill="#123D62"/>
<defs>
<linearGradient id="paint0_linear_739_110" x1="0.00320171" y1="9.97431" x2="41.9635" y2="9.97431" gradientUnits="userSpaceOnUse">
<stop stop-color="#2C7392"/>
<stop offset="1" stop-color="#4AA8CA"/>
</linearGradient>
<linearGradient id="paint1_linear_739_110" x1="0.00320171" y1="15.828" x2="41.9635" y2="15.828" gradientUnits="userSpaceOnUse">
<stop stop-color="#2C7392"/>
<stop offset="1" stop-color="#4AA8CA"/>
</linearGradient>
<linearGradient id="paint2_linear_739_110" x1="0.911932" y1="27.9153" x2="41.4913" y2="27.9153" gradientUnits="userSpaceOnUse">
<stop stop-color="#2C7392"/>
<stop offset="1" stop-color="#4AA8CA"/>
</linearGradient>
<linearGradient id="paint3_linear_739_110" x1="-0.00119293" y1="21.6833" x2="41.963" y2="21.6833" gradientUnits="userSpaceOnUse">
<stop stop-color="#2C7392"/>
<stop offset="1" stop-color="#4AA8CA"/>
</linearGradient>
<linearGradient id="paint4_linear_739_110" x1="5.65886" y1="35.4328" x2="34.0797" y2="35.4328" gradientUnits="userSpaceOnUse">
<stop stop-color="#2C7392"/>
<stop offset="1" stop-color="#4AA8CA"/>
</linearGradient>
<linearGradient id="paint5_linear_739_110" x1="0.00320171" y1="2.43901" x2="41.9635" y2="2.43901" gradientUnits="userSpaceOnUse">
<stop stop-color="#2C7392"/>
<stop offset="1" stop-color="#4AA8CA"/>
</linearGradient>
</defs>
</svg>
